<svg xmlns="http://www.w3.org/2000/svg" xmlns:xlink="http://www.w3.org/1999/xlink"><symbol fill="none" viewBox="0 0 17 16" id="facebook" xmlns="http://www.w3.org/2000/svg"><path d="M16.625 8a8 8 0 10-9.25 7.903v-5.59H5.344V8h2.031V6.237c0-2.005 1.194-3.112 3.022-3.112.875 0 1.79.156 1.79.156V5.25H11.18c-.994 0-1.304.617-1.304 1.25V8h2.219l-.355 2.313H9.875v5.59A8.002 8.002 0 0016.625 8z" fill="#fff"/></symbol><symbol fill="none" viewBox="0 0 33 32" id="icn-add-button" xmlns="http://www.w3.org/2000/svg"><circle cx="16.5" cy="16" r="16" transform="rotate(-180 16.5 16)" fill="#37003C"/><path fill-rule="evenodd" clip-rule="evenodd" d="M25.523 16a.92.92 0 01-.943.943h-7.138v7.138a.92.92 0 01-.943.943.92.92 0 01-.943-.943v-7.138H8.418A.92.92 0 017.475 16c0-.27.067-.471.27-.673.201-.202.403-.27.673-.27h7.138V7.92c0-.27.135-.539.27-.674.134-.134.404-.269.673-.269a.92.92 0 01.943.943v7.138h7.138a.92.92 0 01.943.943z" fill="#fff"/></symbol><symbol fill="none" viewBox="0 0 13 16" id="icn-apple" xmlns="http://www.w3.org/2000/svg"><path d="M6.556 3.954c.68 0 1.53-.46 2.036-1.071.46-.555.794-1.329.794-2.103 0-.105-.01-.21-.03-.296-.754.029-1.662.507-2.206 1.147-.43.487-.823 1.252-.823 2.035 0 .115.02.23.029.268.048.01.124.019.2.019zM4.168 15.516c.927 0 1.338-.621 2.494-.621 1.176 0 1.434.602 2.466.602 1.013 0 1.692-.937 2.332-1.854.716-1.051 1.013-2.083 1.032-2.131-.067-.02-2.007-.812-2.007-3.039 0-1.93 1.53-2.8 1.615-2.867-1.013-1.453-2.552-1.491-2.972-1.491-1.137 0-2.064.688-2.647.688-.63 0-1.463-.65-2.447-.65C2.161 4.153.26 5.701.26 8.626c0 1.816.706 3.736 1.576 4.978.746 1.052 1.396 1.912 2.332 1.912z" fill="#fff"/></symbol><symbol fill="none" viewBox="0 0 16 10" id="icn-arrow-left" xmlns="http://www.w3.org/2000/svg"><path fill-rule="evenodd" clip-rule="evenodd" d="M.926 5.017c.013-.275.103-.563.315-.757l1.177-1.177 1.88-1.88.432-.431c.193-.194.483-.314.757-.315.263 0 .576.116.757.315.186.204.326.471.315.757a1.11 1.11 0 01-.315.757l-1.18 1.18-.48.48h8.349c.502 0 1.009-.006 1.511 0h.022c.277 0 .562.12.757.315.187.187.326.49.315.757-.012.276-.103.564-.315.757-.211.194-.469.316-.757.315H4.58l1.234 1.233.431.432c.194.193.314.483.315.757 0 .262-.116.576-.315.757-.204.186-.47.325-.756.314a1.126 1.126 0 01-.758-.314l-1.18-1.18-1.88-1.88-.431-.432c-.11-.11-.188-.24-.239-.38a.95.95 0 01-.074-.38z" fill="#37003C"/></symbol><symbol viewBox="0 0 15.085 9.422" id="icn-arrow-right" xmlns="http://www.w3.org/2000/svg"><path d="M15.084 4.709c-.013-.285-.106-.581-.325-.782l-1.215-1.216-1.941-1.94-.445-.446A1.15 1.15 0 0010.376 0c-.271 0-.595.12-.781.325-.192.211-.336.487-.325.782.012.294.112.569.325.781l1.218 1.218.495.496H2.69c-.519 0-1.041-.006-1.56 0h-.023c-.285 0-.58.124-.781.326-.193.192-.336.504-.325.781.013.284.106.581.325.781.218.2.484.326.781.325h10.207L10.04 7.088l-.445.445c-.2.2-.324.5-.325.782 0 .271.12.595.325.781.21.192.486.337.782.325a1.16 1.16 0 00.781-.325l1.218-1.218 1.941-1.941.445-.445c.114-.113.194-.248.247-.392a.978.978 0 00.076-.392l-.001.001z"/></symbol><symbol viewBox="0 0 73 73" id="icn-ball" xmlns="http://www.w3.org/2000/svg"><path d="M29.28 67.35L25.26 55a1.2 1.2 0 00-1.14-.83H10.17a31.5 31.5 0 01-5.28-15.76l10-7a1.19 1.19 0 00.46-1.35l-4.09-12.67A31.87 31.87 0 0124.47 7.18l11.34 8.23a1.2 1.2 0 00.7.23 1.17 1.17 0 00.7-.23l11.34-8.23a31.84 31.84 0 0113.57 10.7l-4 12.19a1.2 1.2 0 00.36 1.28l9.55 8.23a31.49 31.49 0 01-5.21 14.55L51 54.15a1.19 1.19 0 00-1.12.79l-4.37 12a31.12 31.12 0 01-16.23.46zM36.5 0a36.49 36.49 0 00-7.94 72.1 1.19 1.19 0 00.7.23h.18A36.5 36.5 0 1036.5 0z"/><path d="M45.94 50.62l5.13-15.78a1.2 1.2 0 00-.43-1.34l-13.43-9.75a1.2 1.2 0 00-1.41 0L22.38 33.5a1.19 1.19 0 00-.43 1.34l5.13 15.78a1.2 1.2 0 001.14.83H44.8a1.2 1.2 0 001.14-.83z"/></symbol><symbol fill="none" viewBox="0 0 12 12" id="icn-calendar" xmlns="http://www.w3.org/2000/svg"><path d="M7.25 9c-.35 0-.646-.12-.888-.363A1.207 1.207 0 016 7.75c0-.35.12-.646.362-.888.242-.241.538-.362.888-.362s.646.12.887.362c.242.242.363.538.363.888s-.12.646-.363.887A1.207 1.207 0 017.25 9zM2.5 11a.963.963 0 01-.706-.294A.963.963 0 011.5 10V3c0-.275.098-.51.294-.706A.963.963 0 012.5 2H3V1h1v1h4V1h1v1h.5c.275 0 .51.098.706.294A.963.963 0 0110.5 3v7c0 .275-.098.51-.294.706A.963.963 0 019.5 11h-7zm0-1h7V5h-7v5zm0-6h7V3h-7v1z" fill="#37003C"/></symbol><symbol viewBox="0 0 32 32" id="icn-caret-down"><path d="M.5 7c-.3 0-.388.206-.188.406l15.375 19.188c.2.2.425.2.625 0L31.687 7.406c.2-.2.113-.406-.188-.406h-31z"/></symbol><symbol viewBox="0 0 14 8" id="icn-chevron-down" xmlns="http://www.w3.org/2000/svg"><path fill-rule="evenodd" clip-rule="evenodd" d="M11.797.926L7.18 5.543 2.568.93a.468.468 0 00-.664-.001l-.99.99a.468.468 0 00.002.663l4.612 4.613a2.334 2.334 0 003.304.006l4.62-4.62a.468.468 0 00-.002-.663l-.993-.994a.464.464 0 00-.66.002z"/></symbol><symbol viewBox="0 0 100 100" id="icn-chevron-right"><path d="M74.363 56.363l-36 36C36.605 94.121 34.303 95 32 95s-4.605-.879-6.363-2.637a8.997 8.997 0 010-12.727L55.273 50 25.637 20.363a8.997 8.997 0 010-12.727 8.997 8.997 0 0112.727 0l36 36c3.515 3.513 3.515 9.215-.001 12.727z"/></symbol><symbol fill="none" viewBox="0 0 30 56" id="icn-chevron-right-curved" xmlns="http://www.w3.org/2000/svg"><mask id="aka" style="mask-type:alpha" maskUnits="userSpaceOnUse" x="0" y="0" width="30" height="56"><path transform="matrix(0 -1 -1 0 29.7 55.243)" fill="#D9D9D9" d="M0 0h54.309v29.417H0z"/></mask><g mask="url(#aka)"><path fill-rule="evenodd" clip-rule="evenodd" d="M1.936 9.481l17.907 17.907L1.949 45.28a1.816 1.816 0 00-.004 2.574l3.84 3.84a1.816 1.816 0 002.574-.004l17.893-17.893c3.551-3.551 3.561-9.278.023-12.817L8.355 3.061a1.816 1.816 0 00-2.574.005L1.927 6.92a1.8 1.8 0 00.008 2.56v.001z" fill="#fff"/></g></symbol><symbol fill="none" viewBox="0 0 12 12" id="icn-clock" xmlns="http://www.w3.org/2000/svg"><path d="M6 3.429v3L7.286 8.57M11.143 6A5.143 5.143 0 11.857 6a5.143 5.143 0 0110.286 0z" stroke="#37003C" stroke-linecap="round"/></symbol><symbol viewBox="0 0 15 15" id="icn-close" xmlns="http://www.w3.org/2000/svg"><path d="M13.878.304a.98.98 0 00-1.418 0L7.09 5.673 1.723.303a.98.98 0 00-1.418 0 .98.98 0 000 1.42L5.673 7.09l-5.37 5.37a.98.98 0 000 1.418c.203.203.406.304.71.304.304 0 .506-.101.71-.304L7.09 8.509l5.369 5.369c.202.203.506.304.709.304.202 0 .506-.101.709-.304a.98.98 0 000-1.418L8.509 7.09l5.369-5.368a.98.98 0 000-1.418z" fill-rule="evenodd"/></symbol><symbol viewBox="0 0 357 357" id="icn-cross" xmlns="http://www.w3.org/2000/svg"><path d="M357 35.7L321.3 0 178.5 142.8 35.7 0 0 35.7l142.8 142.8L0 321.3 35.7 357l142.8-142.8L321.3 357l35.7-35.7-142.8-142.8z"/></symbol><symbol fill="none" viewBox="0 0 24 17" id="icn-email" xmlns="http://www.w3.org/2000/svg"><path d="M1.846.5c-.363 0-.696.11-.98.295l10.394 9.73c.455.427 1.045.427 1.5 0L23.135.796A1.795 1.795 0 0022.154.5H1.846zM.116 1.754c-.07.201-.116.41-.116.637V15.03c0 .384.108.738.298 1.036l7.346-7.251-7.529-7.06zm16.26 7.052l7.326 7.26c.19-.298.298-.652.298-1.036V2.391c0-.226-.046-.436-.115-.636l-7.51 7.05zm-.895.845l-1.875 1.758c-.893.838-2.3.837-3.192 0L8.539 9.662l-7.27 7.165c.182.06.375.095.577.095h20.308c.202 0 .395-.034.577-.095l-7.25-7.175z" fill="#37003C"/></symbol><symbol viewBox="0 0 16 16" fill="none" id="icn-error" xmlns="http://www.w3.org/2000/svg"><g clip-path="url(#apclip0_1269_50161)" fill="#fff"><path d="M8 11a.667.667 0 100-1.333A.667.667 0 008 11zM7.333 5h1.333v4H7.333V5z"/></g><defs><clipPath id="apclip0_1269_50161"><rect fill="#fff" transform="translate(4 4)"/></clipPath></defs></symbol><symbol viewBox="0 0 70.95 69.94" id="icn-expand" xmlns="http://www.w3.org/2000/svg"><path d="M14.59 61.44h12.13a4.25 4.25 0 010 8.5H4.13A4.12 4.12 0 010 65.82v-22.6a4.25 4.25 0 018.5 0v12.13l15.7-15.7a4.3 4.3 0 016.09 0 4.3 4.3 0 010 6.09l-15.7 15.7zM56.36 8.5H44.23a4.25 4.25 0 010-8.5h22.59a4.12 4.12 0 014.13 4.13v22.59a4.25 4.25 0 01-8.5 0V14.59l-15.7 15.7a4.3 4.3 0 01-6.09 0 4.3 4.3 0 010-6.09l15.7-15.7zM8.625 14.924l.051 12.13a4.25 4.25 0 01-8.5.036L.081 4.5A4.12 4.12 0 014.184.353l22.6-.095a4.25 4.25 0 01.035 8.5l-12.13.05 15.766 15.634a4.3 4.3 0 01.026 6.09 4.3 4.3 0 01-6.09.026L8.625 14.924zM62.299 55.2l-.025-12.13a4.25 4.25 0 018.5-.017l.046 22.59a4.12 4.12 0 01-4.122 4.138l-22.59.046a4.25 4.25 0 01-.017-8.5l12.13-.024L40.49 45.635a4.3 4.3 0 01-.012-6.09 4.3 4.3 0 016.09-.013L62.299 55.2z"/></symbol><symbol fill="#c3b3c5" viewBox="0 0 12 12" id="icn-external" xmlns="http://www.w3.org/2000/svg"><path d="M9.674.91c.264 0 .511.065.747.183a1 1 0 01.168.104c.086.065.172.13.245.208.153.167.254.34.338.548.071.175.1.371.1.56v7.142c0 .109.005.221-.007.33a1.746 1.746 0 01-.184.63c-.05.096-.116.18-.183.265a1.032 1.032 0 01-.134.146 1.633 1.633 0 01-1.049.426c-.01 0-.02.003-.029.003h-7.36a1.68 1.68 0 01-.894-.271 1.868 1.868 0 01-.248-.204 1.484 1.484 0 01-.297-.426 1.672 1.672 0 01-.159-.641v-7.44l.004-.075a1.74 1.74 0 01.172-.627 1.74 1.74 0 01.31-.416 1.61 1.61 0 011.07-.446zm.005 1.078H2.485c-.079 0-.158 0-.237.005-.043.009-.085.02-.126.034a1.19 1.19 0 00-.115.067c-.033.03-.065.062-.095.095a1.297 1.297 0 00-.066.114 1.155 1.155 0 00-.035.128c-.002.024-.005.047-.005.07l.001 7.313.004.118c.01.043.02.085.035.126.02.04.042.078.067.115.03.034.061.065.095.095.036.024.074.046.113.066.042.014.085.026.129.035l.07.005h7.364l.064-.005a1.03 1.03 0 00.129-.035 1 1 0 00.114-.067c.034-.03.066-.061.096-.095a1.15 1.15 0 00.066-.113c.014-.042.026-.085.035-.129.001-.023.004-.046.004-.07V2.548l-.005-.118a1.133 1.133 0 00-.034-.127 1 1 0 00-.067-.114 1.065 1.065 0 00-.095-.095 1.082 1.082 0 00-.113-.067 1.188 1.188 0 00-.13-.035c-.022-.001-.046-.004-.07-.004zM8.22 3.418l.086.005a.594.594 0 01.297.153c.046.042.082.1.109.161.031.068.05.143.05.22v2.49a.57.57 0 01-.158.383.555.555 0 01-.382.157.546.546 0 01-.382-.157.563.563 0 01-.158-.383V5.26l-.736.736L5.66 7.283 4.602 8.341l-.444.444a.561.561 0 01-.382.158.546.546 0 01-.382-.158.547.547 0 01-.158-.382c0-.14.06-.284.158-.382l.008-.008c.177-.181.36-.36.539-.539l2.976-2.976H5.733a.554.554 0 01-.382-.158.541.541 0 01.382-.922H8.22z"/></symbol><symbol viewBox="0 0 12 12" id="icn-external-no-fill" xmlns="http://www.w3.org/2000/svg"><path d="M9.674.91c.264 0 .511.065.747.183a1 1 0 01.168.104c.086.065.172.13.245.208.153.167.254.34.338.548.071.175.1.371.1.56v7.142c0 .109.005.221-.007.33a1.746 1.746 0 01-.184.63c-.05.096-.116.18-.183.265a1.032 1.032 0 01-.134.146 1.633 1.633 0 01-1.049.426c-.01 0-.02.003-.029.003h-7.36a1.68 1.68 0 01-.894-.271 1.868 1.868 0 01-.248-.204 1.484 1.484 0 01-.297-.426 1.672 1.672 0 01-.159-.641v-7.44l.004-.075a1.74 1.74 0 01.172-.627 1.74 1.74 0 01.31-.416 1.61 1.61 0 011.07-.446zm.005 1.078H2.485c-.079 0-.158 0-.237.005-.043.009-.085.02-.126.034a1.19 1.19 0 00-.115.067c-.033.03-.065.062-.095.095a1.297 1.297 0 00-.066.114 1.155 1.155 0 00-.035.128c-.002.024-.005.047-.005.07l.001 7.313.004.118c.01.043.02.085.035.126.02.04.042.078.067.115.03.034.061.065.095.095.036.024.074.046.113.066.042.014.085.026.129.035l.07.005h7.364l.064-.005a1.03 1.03 0 00.129-.035 1 1 0 00.114-.067c.034-.03.066-.061.096-.095a1.15 1.15 0 00.066-.113c.014-.042.026-.085.035-.129.001-.023.004-.046.004-.07V2.548l-.005-.118a1.133 1.133 0 00-.034-.127 1 1 0 00-.067-.114 1.065 1.065 0 00-.095-.095 1.082 1.082 0 00-.113-.067 1.188 1.188 0 00-.13-.035c-.022-.001-.046-.004-.07-.004zM8.22 3.418l.086.005a.594.594 0 01.297.153c.046.042.082.1.109.161.031.068.05.143.05.22v2.49a.57.57 0 01-.158.383.555.555 0 01-.382.157.546.546 0 01-.382-.157.563.563 0 01-.158-.383V5.26l-.736.736L5.66 7.283 4.602 8.341l-.444.444a.561.561 0 01-.382.158.546.546 0 01-.382-.158.547.547 0 01-.158-.382c0-.14.06-.284.158-.382l.008-.008c.177-.181.36-.36.539-.539l2.976-2.976H5.733a.554.554 0 01-.382-.158.541.541 0 01.382-.922H8.22z"/></symbol><symbol viewBox="0 0 12 12" id="icn-external-square" xmlns="http://www.w3.org/2000/svg"><path fill-rule="evenodd" d="M10.18 0a1.9 1.9 0 01.85.209 2.081 2.081 0 01.47.356c.175.19.29.387.385.623.082.199.114.422.114.636v8.128c0 .124.006.252-.008.376-.03.26-.088.482-.209.717-.057.11-.132.204-.209.301-.046.06-.095.116-.152.166-.331.3-.746.472-1.193.485l-.033.003H1.82a1.91 1.91 0 01-.822-.194 1.988 1.988 0 01-.478-.346 1.676 1.676 0 01-.338-.485 1.911 1.911 0 01-.181-.73L0 10.18V1.807A1.981 1.981 0 01.201.98 2.02 2.02 0 01.554.507 1.832 1.832 0 011.771 0h8.41zm.006 1.228H2c-.09 0-.18 0-.27.005a1.05 1.05 0 00-.143.04 1.315 1.315 0 00-.13.075c-.039.035-.075.07-.109.109a1.234 1.234 0 00-.075.129 1.27 1.27 0 00-.04.146c-.002.027-.005.053-.005.08v8.186c0 .09 0 .18.005.27.01.048.024.096.04.143.022.045.048.088.076.13.034.039.07.075.108.109.042.027.085.053.129.075.048.016.097.03.146.04.027.002.053.005.08.005h8.38c.024 0 .048-.003.072-.005.05-.01.1-.023.147-.04a1.31 1.31 0 00.131-.076c.038-.034.074-.07.108-.108a1.25 1.25 0 00.075-.129c.017-.048.03-.097.04-.147.002-.026.005-.053.005-.08V2c0-.09 0-.18-.005-.27a1.288 1.288 0 00-.04-.143 1.321 1.321 0 00-.075-.131 1.304 1.304 0 00-.109-.108 1.23 1.23 0 00-.129-.075 1.277 1.277 0 00-.146-.04c-.027-.002-.053-.005-.08-.005zm-1.66 1.627a.62.62 0 01.436.18.546.546 0 01.124.183.593.593 0 01.057.251v2.833c0 .167-.07.314-.18.435a.626.626 0 01-.434.18.621.621 0 01-.435-.18.639.639 0 01-.18-.435v-1.35l-.837.837-1.465 1.465-1.204 1.203-.505.506a.639.639 0 01-.435.179.62.62 0 01-.435-.18.626.626 0 01-.179-.434.63.63 0 01.18-.435l.008-.01c.202-.205.41-.408.614-.612l2.727-2.728.66-.66H5.696a.637.637 0 01-.435-.179.626.626 0 01-.18-.435.62.62 0 01.18-.435.639.639 0 01.435-.179h2.83z" clip-rule="evenodd"/></symbol><symbol viewBox="0 0 16 16" id="icn-facebook" xmlns="http://www.w3.org/2000/svg"><path d="M8.516 15.944H.88a.88.88 0 01-.88-.88V.88A.88.88 0 01.88 0h14.184a.88.88 0 01.88.88v14.184a.88.88 0 01-.88.88H11V9.77h2.072l.31-2.407h-2.382V5.827c0-.697.193-1.171 1.192-1.171h1.275V2.502c-.22-.03-.977-.095-1.857-.095-1.837 0-3.095 1.121-3.095 3.18v1.775H6.438V9.77h2.078v6.174z" fill-rule="evenodd"/></symbol><symbol viewBox="96 93 322 324" id="icn-facebook-messenger" xmlns="http://www.w3.org/2000/svg"><path d="M257 93c-88.918 0-161 67.157-161 150 0 47.205 23.412 89.311 60 116.807V417l54.819-30.273C225.449 390.801 240.948 393 257 393c88.918 0 161-67.157 161-150S345.918 93 257 93zm16 202l-41-44-80 44 88-94 42 44 79-44-88 94z"/></symbol><symbol fill="none" viewBox="0 0 20 21" id="icn-facebook-social" xmlns="http://www.w3.org/2000/svg"><g clip-path="url(#awclip0_10499_6161)"><path d="M20 10.803c0-5.522-4.477-10-10-10s-10 4.478-10 10c0 4.992 3.657 9.129 8.438 9.879v-6.988h-2.54v-2.89h2.54V8.6c0-2.506 1.492-3.89 3.777-3.89 1.094 0 2.238.195 2.238.195v2.461h-1.26c-1.243 0-1.63.77-1.63 1.562v1.875h2.773l-.443 2.891h-2.33v6.988c4.78-.75 8.437-4.887 8.437-9.878z" fill="#1877F2"/><path d="M13.893 13.694l.443-2.89h-2.774V8.928c0-.791.388-1.562 1.63-1.562h1.261V4.905s-1.144-.195-2.238-.195c-2.285 0-3.777 1.384-3.777 3.89v2.204h-2.54v2.89h2.54v6.988a10.073 10.073 0 003.124 0v-6.988h2.33z" fill="#fff"/></g><defs><clipPath id="awclip0_10499_6161"><path fill="#fff" transform="translate(0 .803)" d="M0 0h20v20H0z"/></clipPath></defs></symbol><symbol fill="none" viewBox="0 0 14 14" id="icn-full-screen" xmlns="http://www.w3.org/2000/svg"><g clip-path="url(#axclip0_10531_12259)" fill-rule="evenodd" clip-rule="evenodd" fill="#fff"><path d="M11.802 5.046h1.9v-2.85a1.9 1.9 0 00-1.9-1.899h-2.85v1.9h2.85v2.85zM13.701 11.695v-2.85h-1.9v2.85H8.953v1.9h2.85a1.9 1.9 0 001.9-1.9zM2.304 13.595h2.85v-1.9h-2.85v-2.85h-1.9v2.85a1.9 1.9 0 001.9 1.9zM2.304 2.197h2.85v-1.9h-2.85a1.9 1.9 0 00-1.9 1.9v2.85h1.9v-2.85z"/></g><defs><clipPath id="axclip0_10531_12259"><path fill="#fff" transform="translate(.404 .297)" d="M0 0h13.297v13.297H0z"/></clipPath></defs></symbol><symbol fill="none" viewBox="0 0 17 16" id="icn-google" xmlns="http://www.w3.org/2000/svg"><path fill-rule="evenodd" clip-rule="evenodd" d="M16.055 8.182c0-.568-.05-1.113-.146-1.637H8.375V9.64h4.306a3.68 3.68 0 01-1.597 2.415v2.007h2.585c1.513-1.393 2.386-3.444 2.386-5.88z" fill="#4285F4"/><path fill-rule="evenodd" clip-rule="evenodd" d="M8.375 16c2.16 0 3.97-.716 5.294-1.938l-2.585-2.007c-.717.48-1.633.763-2.71.763-2.083 0-3.847-1.407-4.476-3.298H1.226v2.073A7.997 7.997 0 008.375 16z" fill="#34A853"/><path fill-rule="evenodd" clip-rule="evenodd" d="M3.899 9.52c-.16-.48-.251-.993-.251-1.52s.09-1.04.25-1.52V4.407H1.227A7.997 7.997 0 00.375 8c0 1.29.31 2.513.85 3.593L3.9 9.52z" fill="#FBBC05"/><path fill-rule="evenodd" clip-rule="evenodd" d="M8.375 3.182c1.174 0 2.229.403 3.058 1.196l2.294-2.294C12.342.793 10.531 0 8.375 0a7.997 7.997 0 00-7.15 4.407L3.899 6.48c.63-1.89 2.393-3.298 4.477-3.298z" fill="#EA4335"/></symbol><symbol fill="none" viewBox="0 0 4 10" id="icn-info" xmlns="http://www.w3.org/2000/svg"><path fill-rule="evenodd" clip-rule="evenodd" d="M3.671 2.318A.995.995 0 004 1.566c0-.293-.11-.544-.329-.753A1.109 1.109 0 002.88.5c-.308 0-.574.105-.794.313-.22.209-.33.46-.33.753 0 .294.11.545.33.752.22.206.486.31.794.31.308 0 .572-.104.791-.31zm-.505 6.907c.395-.188.605-.54.4-.702-.12-.092-.274.061-.388.061-.243 0-.414-.04-.513-.121-.1-.082-.147-.234-.147-.458 0-.09.014-.22.044-.394.03-.174.066-.329.103-.465l.47-1.685c.045-.155.078-.326.095-.51.016-.187.025-.316.025-.39 0-.354-.123-.643-.369-.866-.245-.222-.595-.334-1.049-.334-.252 0-.52.038-.801.137-.55.195-.429.681-.306.681.248 0 .414.043.502.128.089.085.134.235.134.452 0 .119-.016.253-.044.397-.029.144-.063.299-.106.46L.744 7.31c-.04.178-.071.337-.091.478-.02.142-.028.28-.028.415 0 .347.126.634.38.86.253.228.642.438 1.098.438.297 0 .72-.112 1.063-.275z" fill="#87668A"/></symbol><symbol viewBox="0 0 20 20" id="icn-instagram" xmlns="http://www.w3.org/2000/svg"><path d="M9.949 0c2.702 0 3.04.011 4.102.06 1.059.048 1.782.216 2.415.462a4.877 4.877 0 011.762 1.148 4.877 4.877 0 011.147 1.762c.246.633.415 1.356.463 2.415.048 1.061.06 1.4.06 4.102 0 2.702-.012 3.04-.06 4.102-.048 1.059-.217 1.782-.463 2.415a4.877 4.877 0 01-1.147 1.762 4.877 4.877 0 01-1.762 1.147c-.633.246-1.356.415-2.415.463-1.061.048-1.4.06-4.102.06-2.702 0-3.04-.012-4.102-.06-1.059-.048-1.782-.217-2.415-.463a4.877 4.877 0 01-1.762-1.147 4.877 4.877 0 01-1.148-1.762C.276 15.833.108 15.11.06 14.05.01 12.99 0 12.65 0 9.949c0-2.702.011-3.04.06-4.102.048-1.059.216-1.782.462-2.415A4.877 4.877 0 011.67 1.67 4.877 4.877 0 013.432.522C4.065.276 4.788.108 5.847.06 6.908.01 7.247 0 9.949 0zm0 1.793c-2.657 0-2.971.01-4.02.058-.97.044-1.497.206-1.848.342-.464.18-.795.396-1.144.744-.348.349-.563.68-.744 1.144-.136.35-.298.878-.342 1.848-.048 1.049-.058 1.363-.058 4.02 0 2.656.01 2.971.058 4.02.044.97.206 1.497.342 1.847.18.465.396.796.744 1.144.349.349.68.564 1.144.745.35.136.878.298 1.848.342 1.049.048 1.363.058 4.02.058 2.657 0 2.971-.01 4.02-.058.97-.044 1.497-.206 1.847-.342.465-.18.796-.396 1.144-.745.349-.348.564-.68.745-1.144.136-.35.298-.877.342-1.847.048-1.049.058-1.364.058-4.02 0-2.657-.01-2.971-.058-4.02-.044-.97-.206-1.497-.342-1.848a3.082 3.082 0 00-.745-1.144 3.082 3.082 0 00-1.144-.744c-.35-.136-.877-.298-1.847-.342-1.049-.048-1.364-.058-4.02-.058zm0 3.047a5.109 5.109 0 110 10.218 5.109 5.109 0 010-10.218zm0 8.425a3.316 3.316 0 100-6.632 3.316 3.316 0 000 6.632zm6.504-8.627a1.194 1.194 0 11-2.387 0 1.194 1.194 0 012.387 0z" fill-rule="evenodd"/></symbol><symbol viewBox="0 0 14 14" id="icn-link" xmlns="http://www.w3.org/2000/svg"><g fill-rule="evenodd"><path d="M13.01 1.243L12.757.99a3.39 3.39 0 00-4.788 0l-1.52 1.52a.7.7 0 10.99.99l1.52-1.52a1.989 1.989 0 012.808 0l.253.253a1.989 1.989 0 010 2.809l-2.43 2.43c-.297.297-.672.49-1.084.556a1.995 1.995 0 01-1.725-.555l-.252-.252a2.098 2.098 0 01-.204-.239.7.7 0 10-1.131.825c.103.142.218.277.344.403l.253.254a3.395 3.395 0 002.94.947 3.363 3.363 0 001.849-.947l2.43-2.43a3.392 3.392 0 000-4.79z"/><path d="M6.563 10.5l-1.52 1.52a1.988 1.988 0 01-2.807 0l-.254-.254a1.972 1.972 0 01-.581-1.404c0-.53.206-1.029.581-1.404l2.43-2.43c.297-.297.67-.489 1.083-.556a1.995 1.995 0 011.726.555l.252.253c.075.074.143.154.204.237a.7.7 0 101.131-.824 3.432 3.432 0 00-.345-.403l-.253-.254a3.392 3.392 0 00-2.941-.947 3.36 3.36 0 00-1.847.947L.992 7.968C.352 8.608 0 9.458 0 10.362c0 .904.353 1.754.992 2.394l.253.253c.66.66 1.527.99 2.394.99.868 0 1.734-.33 2.394-.99l1.52-1.519a.7.7 0 10-.99-.99z"/></g></symbol><symbol viewBox="0 0 8 11" id="icn-lock" xmlns="http://www.w3.org/2000/svg"><path d="M.75 11a.722.722 0 01-.53-.22.722.722 0 01-.22-.53V4.825c0-.206.073-.383.22-.53a.722.722 0 01.53-.22h.875v-1.2c0-.657.232-1.217.695-1.68A2.29 2.29 0 014.001.5c.658 0 1.218.232 1.68.695a2.29 2.29 0 01.694 1.68v1.2h.875c.206 0 .383.073.53.22.147.147.22.324.22.53v5.425a.722.722 0 01-.22.53.722.722 0 01-.53.22H.75zm3.252-2.5a.935.935 0 00.68-.275.893.893 0 00.28-.662.98.98 0 00-.283-.682.896.896 0 00-.681-.306.89.89 0 00-.68.306.991.991 0 00-.28.688c0 .254.094.473.283.656a.943.943 0 00.681.275zM2.375 4.075h3.25v-1.2c0-.451-.158-.835-.474-1.151a1.565 1.565 0 00-1.15-.474 1.57 1.57 0 00-1.151.474c-.317.316-.475.7-.475 1.151v1.2z"/></symbol><symbol viewBox="0 0 19 13" id="icn-mail" xmlns="http://www.w3.org/2000/svg"><path d="M1.9 0C1.486 0 1.106.134.794.361L.802.37l8.312 7.914c.184.175.588.175.772 0L18.198.369l.008-.008A1.871 1.871 0 0017.1 0H1.9zM.186 1.098A1.94 1.94 0 000 1.926v9.148c0 .363.104.697.275.986l5.878-5.274L.186 1.098zm18.628 0l-5.967 5.688 5.878 5.273c.171-.288.275-.622.275-.985V1.926a1.94 1.94 0 00-.186-.828zM6.85 7.448l-5.9 5.289c.28.164.602.263.95.263h15.2c.348 0 .67-.099.95-.263l-5.9-5.29-1.611 1.536a1.509 1.509 0 01-2.078 0L6.85 7.448z" fill-rule="evenodd"/></symbol><symbol viewBox="0 0 65.25 43.64" id="icn-miss-p" xmlns="http://www.w3.org/2000/svg"><defs><style>.becls-1{fill:#d80e0e}.becls-2{fill:#fff}</style></defs><g id="beLayer_2" data-name="Layer 2"><path class="becls-1" d="M36.71 43.64l-4.22-9.37-4.16 9.37h-9.44l8.48-16.08-7.9-14.33h9.64l3.47 7.72 3.65-7.72h9.5l-8.09 14.09 8.73 16.32h-9.66z"/><path class="becls-2" d="M63 0H2.25A2.25 2.25 0 000 2.25V36a2.25 2.25 0 004.5 0v-1.72l4-4a1.1 1.1 0 00.48.11 1.12 1.12 0 001.05-.75h15.1l.4-.75h-2.65v-6h.77l-.41-.75h-.35v-.64l-.75-1.36v2h-6v-6h3.8l-.41-.75h-3.4v-6h6v2.85h.75V9.38h6v2.85h.75V9.38h6v2.85h.75V9.38h6v2.85h.75V9.38h6v6h-3.48l-.43.75h3.91v6h-6v-2.36l-.75 1.31v1h-.6l-.43.75h1v6H39.6l.4.75h15.19a1.11 1.11 0 001.54.64l4 4V36a2.25 2.25 0 004.5 0V2.25A2.24 2.24 0 0063 0zM4.5 6.09l3.38 3.38v5.65l-3.38-.76zm0 9l3.38.75v6.48l-3.37.75zm0 18.09v-9.3l3.38-.75v6.12a1.1 1.1 0 00.11.48zm5.3-25L6.09 4.5h6.73l2.29 4.13h-5.05a1.12 1.12 0 00-.26-.43zm5.58 20.67h-5.25v-6h5.25zm0-6.75h-5.25v-6h5.25zm0-6.75h-5.25v-6h5.25zm6.75 7.5v6h-6v-6zM16 8.63L13.68 4.5h6.93L22 8.63zm6.8 0L21.4 4.5h7l.45 4.13zm12.9 0h-6.11l-.45-4.13h7zm13.43 20.25h-6v-6h6zM42.48 8.63h-6.06l.46-4.12h7zm.79 0l1.38-4.13h6.44l-1.83 4.13zm11.86 20.25h-5.25v-6h5.25zm0-6.75h-5.25v-6h5.25zm0-6.75h-5.25v-6h5.25zm.33-7.17a1.17 1.17 0 00-.26.42h-5.12l1.83-4.13h7.25zm5.29 25l-3.49-3.49a1.1 1.1 0 00.11-.48v-6.11l3.38.75zm0-10.11l-3.37-.75v-6.47l3.38-.75zm0-8.75l-3.37.75V9.47l3.38-3.37z"/><path class="becls-2" d="M34.11 15.38h-2.94l.34.75h2.25l.35-.75z"/></g></symbol><symbol viewBox="0 0 16 21" id="icn-notification" xmlns="http://www.w3.org/2000/svg"><path fill-rule="evenodd" clip-rule="evenodd" d="M14.665 13.197a5.229 5.229 0 01-1.09-3.213V7.746c0-2.696-1.799-4.934-4.196-5.48V1.205C9.379.545 8.862 0 8.235 0 7.608 0 7.09.545 7.09 1.205v1.061c-2.398.545-4.196 2.783-4.196 5.48v2.238a5.226 5.226 0 01-1.09 3.213l-.9 1.205c-.655.86-.083 2.122.953 2.122h12.809c1.036 0 1.607-1.262.954-2.122l-.954-1.205zM8.261 21c1.499 0 2.725-1.291 2.725-2.869h-5.45C5.536 19.71 6.762 21 8.26 21z"/></symbol><symbol viewBox="0 0 73 73" id="icn-og" xmlns="http://www.w3.org/2000/svg"><path d="M29.28 67.35L25.26 55a1.2 1.2 0 00-1.14-.83H10.17a31.5 31.5 0 01-5.28-15.76l10-7a1.19 1.19 0 00.46-1.35l-4.09-12.67A31.87 31.87 0 0124.47 7.18l11.34 8.23a1.2 1.2 0 00.7.23 1.17 1.17 0 00.7-.23l11.34-8.23a31.84 31.84 0 0113.57 10.7l-4 12.19a1.2 1.2 0 00.36 1.28l9.55 8.23a31.49 31.49 0 01-5.21 14.55L51 54.15a1.19 1.19 0 00-1.12.79l-4.37 12a31.12 31.12 0 01-16.23.46zM36.5 0a36.49 36.49 0 00-7.94 72.1 1.19 1.19 0 00.7.23h.18A36.5 36.5 0 1036.5 0z"/><path d="M45.94 50.62l5.13-15.78a1.2 1.2 0 00-.43-1.34l-13.43-9.75a1.2 1.2 0 00-1.41 0L22.38 33.5a1.19 1.19 0 00-.43 1.34l5.13 15.78a1.2 1.2 0 001.14.83H44.8a1.2 1.2 0 001.14-.83z"/></symbol><symbol viewBox="0 0 12 10" id="icn-photo-camera" xmlns="http://www.w3.org/2000/svg"><path d="M7.666.5l.667 1.34H11c.567 0 1 .436 1 1.005v5.36c0 .535-.433 1.004-1 1.004H1c-.567 0-1-.469-1-1.005v-5.36A.984.984 0 011 1.84h2.666L4.333.5h3.333zM6 3.18a2.324 2.324 0 00-2.333 2.345A2.324 2.324 0 006 7.87c1.3 0 2.333-1.039 2.333-2.345A2.324 2.324 0 006 3.18zm0 1.34c.553 0 1 .45 1 1.005C7 6.08 6.553 6.53 6 6.53c-.553 0-1-.45-1-1.005 0-.555.447-1.005 1-1.005z"/></symbol><symbol viewBox="0 0 13 24" id="icn-pin" xmlns="http://www.w3.org/2000/svg"><path fill-rule="evenodd" clip-rule="evenodd" d="M10.118.75L9.96.71C8.298.272 7.255 0 6.197 0c-1.058 0-2.1.273-3.762.71l-.159.04c-.318.084-.7.253-.982.608-.3.376-.363.8-.339 1.138.023.313.123.593.211.8.093.216.208.43.315.62l.223.384c.143.244.27.46.388.701.173.352.222.563.222.675 0 1.368-.564 3.015-1.17 4.43-.218.51-.426.957-.605 1.34-.065.14-.127.271-.183.395a7.27 7.27 0 00-.26.615 1.675 1.675 0 00-.094.456c-.005.09-.013.37.155.666.231.408.648.602 1.034.602h3.928v8.657a1.163 1.163 0 002.327 0V14.18h3.774c.373 0 .785-.181 1.023-.581a1.23 1.23 0 00.169-.673 1.67 1.67 0 00-.094-.47 7.143 7.143 0 00-.263-.628 65.158 65.158 0 00-.205-.44c-.178-.38-.384-.82-.6-1.32-.618-1.433-1.183-3.07-1.17-4.38 0-.117.054-.332.227-.685.118-.24.243-.453.383-.693.072-.123.149-.253.23-.397.107-.19.221-.404.313-.62.088-.208.187-.489.208-.802a1.615 1.615 0 00-.342-1.135c-.283-.354-.663-.522-.981-.606zM3.662 3.038a32.575 32.575 0 01-.123-.212c1.39-.36 2.03-.5 2.658-.5.629 0 1.27.14 2.663.501l-.128.221c-.16.273-.357.612-.513.928-.219.445-.46 1.041-.466 1.689-.018 1.843.736 3.876 1.361 5.325.131.304.263.596.386.863H2.915c.117-.257.243-.538.369-.832.618-1.444 1.357-3.468 1.357-5.345 0-.652-.24-1.252-.46-1.699a15.045 15.045 0 00-.519-.94zm5.871-.035h-.002a.03.03 0 01.002 0zm.581 10.2zm-7.817.01v-.002c-.005.019-.006.021 0 .001zm.564-10.21h.002-.002z" fill="url(#bia)"/><defs><linearGradient id="bia" x1="5.728" y1="-11.847" x2="28.708" y2="1.021" gradientUnits="userSpaceOnUse"><stop offset=".2" stop-color="#05F0FF"/><stop offset=".81" stop-color="#7367FF"/><stop offset="1" stop-color="#963CFF"/></linearGradient></defs></symbol><symbol viewBox="0 0 32 32" id="icn-play" xmlns="http://www.w3.org/2000/svg"><path d="M10.145 25.333a2.87 2.87 0 001.592-.435l11.411-6.648c1.028-.598 1.652-1.226 1.652-2.25s-.624-1.652-1.652-2.25L11.737 7.102a2.865 2.865 0 00-1.592-.435C8.967 6.667 8 7.528 8 9.079v13.853c0 1.54.967 2.401 2.145 2.401z"/></symbol><symbol fill="none" viewBox="0 0 19 20" id="icn-plus" xmlns="http://www.w3.org/2000/svg"><path fill-rule="evenodd" clip-rule="evenodd" d="M18.523 10a.92.92 0 01-.943.943h-7.138v7.138a.92.92 0 01-.943.943.92.92 0 01-.943-.943v-7.138H1.418A.92.92 0 01.475 10c0-.27.067-.471.27-.673.201-.202.403-.27.673-.27h7.138V1.92c0-.27.135-.539.27-.674.134-.134.404-.269.673-.269a.92.92 0 01.943.943v7.138h7.138a.92.92 0 01.943.943z" fill="#fff"/></symbol><symbol viewBox="0 0 24 24" id="icn-poll" xmlns="http://www.w3.org/2000/svg"><path fill-rule="evenodd" clip-rule="evenodd" d="M4.349 16.708C1.692 15.184 0 12.883 0 10.308 0 5.719 5.373 2 12 2s12 3.72 12 8.308c0 1.609-.661 3.111-1.805 4.384-.83-2.127-3.638-3.692-6.973-3.692C11.233 11 8 13.239 8 16c0 .838.298 1.628.824 2.321a16.032 16.032 0 01-1.042-.233l-5.936 2.374 2.503-3.754zM22 16.5c0 1.395-.917 2.641-2.355 3.467L21 22l-3.215-1.286A9.1 9.1 0 0115.5 21C11.91 21 9 18.985 9 16.5s2.91-4.5 6.5-4.5 6.5 2.015 6.5 4.5z"/></symbol><symbol fill="none" viewBox="0 0 203 38" id="icn-prem-logo-purple" xmlns="http://www.w3.org/2000/svg"><path d="M0 27.345V9.027h5.804c3.78 0 6.614 2.25 6.614 6.122 0 3.871-2.79 6.21-6.614 6.21H3.555v5.986H0zm3.555-9.407h2.069c1.8 0 3.104-.99 3.104-2.79s-1.304-2.745-3.104-2.745H3.555v5.537-.002zm50.392-2.656h3.329v12.063h-3.329V15.282zm1.71-1.62c-1.17 0-2.07-.9-2.07-2.025s.9-2.07 2.07-2.07c1.168 0 2.068.9 2.068 2.07s-.9 2.025-2.069 2.025zm-6.705 6.57c0-1.304-.72-2.115-1.844-2.115-1.304 0-1.98.81-1.98 2.16v7.066H41.8v-7.11c0-1.305-.72-2.116-1.845-2.116-1.304 0-1.98.81-1.98 2.16v7.066h-3.328v-12.06h2.924l.36 1.575s.72-1.891 2.969-1.891c1.395 0 2.564.585 3.375 1.8l.09.136.09-.136c1.17-1.665 2.61-1.8 3.508-1.8 2.565 0 4.32 1.936 4.32 4.68v7.698h-3.33v-7.113zm23.262 7.11v-12.06h2.88l.36 1.756c.54-1.125 1.62-1.89 3.06-1.89.315 0 .629.045.944.136v3.196a5.135 5.135 0 00-1.17-.135c-1.619 0-2.743.99-2.743 2.925v6.076h-3.33v-.003zm-58.671 0v-12.06h2.88l.36 1.756c.54-1.125 1.62-1.89 3.06-1.89.315 0 .628.045.944.136v3.196a5.136 5.136 0 00-1.17-.135c-1.62 0-2.744.99-2.744 2.925v6.076h-3.328l-.002-.003zm51.518.316c-3.735 0-6.479-2.565-6.479-6.3 0-3.377 2.475-6.391 6.389-6.391 2.924 0 5.939 2.205 5.939 6.301 0 .316 0 .72-.09 1.171h-8.818c.315 1.35 1.529 2.25 3.015 2.25 1.349 0 2.384-.496 3.24-1.396l2.024 2.07c-1.305 1.484-3.195 2.295-5.22 2.295zm-.18-9.766c-1.395 0-2.564.81-2.835 2.116h5.58c-.27-1.26-1.396-2.116-2.745-2.116zm-37.389 9.766c-3.735 0-6.48-2.565-6.48-6.3 0-3.377 2.476-6.391 6.39-6.391 2.924 0 5.939 2.205 5.939 6.301 0 .316 0 .72-.09 1.171h-8.818c.315 1.35 1.53 2.25 3.015 2.25 1.35 0 2.384-.496 3.24-1.396l2.024 2.07c-1.305 1.484-3.194 2.295-5.22 2.295zm-.18-9.766c-1.395 0-2.564.81-2.835 2.116h5.58c-.271-1.26-1.396-2.116-2.745-2.116zm156.127 9.765c-2.655 0-5.895-1.44-5.895-5.942V15.28h3.329v6.21c0 2.07.945 2.97 2.564 2.97 1.485 0 2.565-1.036 2.565-2.97v-6.21h3.328v6.436c0 4.501-3.284 5.942-5.894 5.942m-28.661 0c1.664 0 3.015-.765 3.735-1.845l.36 1.53h2.924V15.28h-2.924l-.36 1.575c-.72-1.125-1.936-1.755-3.735-1.755-3.195 0-5.984 2.835-5.984 6.21 0 3.374 2.789 6.346 5.984 6.346zm.675-9.542c1.755 0 3.104 1.35 3.104 3.196s-1.349 3.15-3.104 3.15a3.13 3.13 0 01-3.149-3.15c0-1.845 1.349-3.196 3.149-3.196zm-20.831 9.226v-3.376h-7.739V9.027h-3.555v18.316h11.294v-.002zm7.199.316c2.024 0 3.915-.81 5.219-2.296l-2.024-2.07c-.855.9-1.889 1.396-3.24 1.396-1.484 0-2.699-.9-3.013-2.25h8.819c.089-.449.089-.855.089-1.169 0-4.096-3.015-6.301-5.939-6.301-3.915 0-6.389 3.016-6.389 6.39 0 3.736 2.745 6.301 6.48 6.301m-.18-9.766c1.349 0 2.473.855 2.744 2.116h-5.579c.269-1.305 1.439-2.116 2.835-2.116zm55.342 9.766c2.024 0 3.915-.809 5.22-2.296l-2.025-2.069c-.855.9-1.889 1.396-3.239 1.396-1.485 0-2.7-.9-3.016-2.25h8.819c.09-.45.09-.855.09-1.17 0-4.095-3.015-6.3-5.94-6.3-3.915 0-6.39 3.016-6.39 6.39 0 3.736 2.744 6.301 6.479 6.301m-.18-9.766c1.351 0 2.476.855 2.745 2.116h-5.58c.269-1.305 1.44-2.116 2.834-2.116m-27.131.224c1.755 0 3.149 1.35 3.149 3.196 0 1.847-1.395 3.15-3.149 3.15a3.131 3.131 0 01-3.149-3.15c0-1.845 1.396-3.196 3.149-3.196zm2.969-1.305c-.72-1.035-1.98-1.709-3.375-1.709-3.42 0-6.208 2.7-6.208 6.21s2.699 6.346 6.119 6.346c1.304 0 2.475-.405 3.464-1.44v.855c0 1.8-1.08 3.016-3.555 3.016-1.575 0-2.789-.764-3.689-1.62l-1.844 2.565c1.44 1.396 3.24 2.25 5.759 2.25 1.845 0 3.375-.63 4.5-1.485 1.484-1.17 2.115-2.745 2.115-4.996V15.28h-2.924l-.36 1.529M91.556 3.172c1.68.77 2.758 1.742 2.953 1.89-.089-.436-.42-2.523-.61-3.822.979.68 3.252 2.258 3.997 2.77.305-.94 1.36-4.005 1.36-4.005s1.906 3.088 2.231 3.59c.4-.416 2.678-2.952 3.267-3.595.1 1.46.235 3.548.266 3.861.117-.156.989-1.378 2.451-2.506-.634 1.248-.936 2.973-1.071 4.358a16.74 16.74 0 00-4.522-.619c-3.005 0-5.826.792-8.265 2.178-.444-1.336-1.138-3-2.059-4.1h.002zm0 0c1.68.77 2.758 1.742 2.953 1.89-.089-.436-.42-2.523-.61-3.822.979.68 3.252 2.258 3.997 2.77.305-.94 1.36-4.005 1.36-4.005s1.906 3.088 2.231 3.59c.398-.416 2.678-2.952 3.267-3.595.1 1.46.235 3.548.268 3.861.116-.156.989-1.378 2.451-2.506-.634 1.248-.936 2.973-1.071 4.358a16.75 16.75 0 00-4.522-.619c-3.005 0-5.826.792-8.265 2.178-.444-1.336-1.139-3-2.06-4.1zm22.999 26.335l-1.323-1.468c-.379 3.964-2.317 7.328-5.881 9.674l-.543-2.138c-3.026 2.188-8.218 3.604-12.676 1.083.552-2.827 1.044-5.689-.01-9.118-2.468 3.825-4.656 5.324-4.656 5.324-1.666-2.802-1.516-8.424-1.02-10.08l-2.776.86c0-1.887 1.36-5.898 3.329-8.147l-1.735-.278a16.32 16.32 0 015.089-6.048h.002c-.647 1.022-.655 3.541 1.239 4.5-.806-1.412-.902-3.154-.063-4.057.841-.909 2.253-.597 3.155.11-.267-.787-1.054-1.777-2.233-1.845a16.19 16.19 0 017.427-1.792c.5 0 .994.022 1.482.067.779.314 1.92 1.41 2.453 2.09 0 0 .038-.804-.409-1.775 2.896.703 4.276 1.883 4.856 2.454.118 1.25.493 2.002.989 3.192-.938-1.052-3.297-2.746-4.421-3.153 0 0-.092 1.086-.48 1.609-2.24-1.619-3.341-2.024-3.341-2.024-2.461.352-4.041 1.302-4.9 2.048l.749.637c-1.483.457-2.446 1.732-2.446 1.732.01.022 1.325.21 1.325.21s-.134 1.544 1.8 2.513c1.654.828 4.036-.199 6.278.7-1.475-1.703-2.49-2.464-2.49-2.464s-.586-.122-1-.12c-.514.003-1.28.106-2.123-.223-.401-.156-.871-.434-1.238-.666 0 0 1.035-1.063 2.546-1.297 0 0 1.362.383 2.444 1.182.718-.699 1.467-.677 1.467-.677s-.742.695-.518 1.535c1.08.963 2.251 2.34 2.251 2.34 1.193-.655 3.785-.504 4.318.113-.676-.874-1.647-1.604-2.4-2.23-.091-.328-.912-1.473-1.051-1.578 0 0 .782.242 1.478.866.202-.284.576-.576 1.087-.704.526.44.617 1.116.603 1.229-.238.281-.468.398-.468.398l1.262 1.366.126-.98c2.909 4.154 4.496 8.969 2.455 15.023l-.009.007zm-5.486-8.956l-.004-2.148s-.958-.309-1.985-1.104c-2.057.312-4.551 2.381-4.551 2.381s.844 1.598 1.763 3.322c1.619.222 4.004-1.82 4.773-2.452l.004.001zm2.07 3.898s-.164-.889-.869-1.72l-1.604.04s-2.167 1.861-3.487 1.904c0 0 .729 1.355 1.094 2.061.728-.158 2.007-.734 2.521-1.33 0 0 .342 1.099.276 2.393.724-.422 1.721-1.557 2.071-3.35l-.002.002zm.66-7.063c-.809.683-1.496 1.06-1.496 1.06l.007 2.158c.581.647 1.152 1.182 1.58 2.157.811-1.459.657-3.609-.091-5.375z" fill="#37003C"/></symbol><symbol fill="none" viewBox="0 0 1026 186" id="icn-prem-logo-white" xmlns="http://www.w3.org/2000/svg"><path d="M.13 124.55V32h29.334c19.102 0 33.431 11.366 33.431 30.928S48.791 94.306 29.464 94.306H18.098v30.244H.13zm17.968-47.527h10.456c9.097 0 15.69-4.999 15.69-14.095s-6.593-13.87-15.69-13.87H18.098v27.974-.009zm254.691-13.42h16.824v60.947h-16.824V63.604zm8.638-8.186c-5.909 0-10.457-4.548-10.457-10.232 0-5.683 4.548-10.456 10.457-10.456 5.908 0 10.456 4.548 10.456 10.456 0 5.909-4.548 10.232-10.456 10.232zm-33.882 33.198c0-6.593-3.639-10.69-9.322-10.69-6.593 0-10.006 4.097-10.006 10.915v35.701h-16.824V88.615c0-6.593-3.639-10.69-9.322-10.69-6.593 0-10.006 4.097-10.006 10.915v35.701h-16.824V63.604h14.779l1.82 7.961s3.638-9.555 15.004-9.555c7.052 0 12.961 2.954 17.058 9.096l.46.684.45-.684c5.917-8.412 13.194-9.096 17.734-9.096 12.96 0 21.831 9.78 21.831 23.65v38.89h-16.832V88.615zm117.569 35.926V63.604h14.554l1.82 8.87c2.729-5.682 8.186-9.546 15.464-9.546 1.594 0 3.179.225 4.773.684v16.149c-2.044-.46-3.864-.685-5.908-.685-8.187 0-13.87 5.008-13.87 14.78v30.703h-16.824l-.009-.018zm-296.535 0V63.604h14.554l1.82 8.87c2.728-5.682 8.186-9.546 15.463-9.546 1.594 0 3.179.225 4.774.684v16.149c-2.045-.46-3.864-.685-5.909-.685-8.187 0-13.87 5.008-13.87 14.78v30.703H68.587l-.008-.018zm260.383 1.594c-18.877 0-32.747-12.96-32.747-31.837 0-17.058 12.51-32.288 32.288-32.288 14.78 0 30.018 11.14 30.018 31.837 0 1.594 0 3.639-.45 5.917h-44.573c1.594 6.818 7.728 11.366 15.239 11.366 6.818 0 12.05-2.503 16.373-7.051l10.232 10.456c-6.593 7.502-16.149 11.6-26.38 11.6zm-.91-49.346c-7.051 0-12.96 4.098-14.329 10.69h28.199c-1.36-6.367-7.052-10.69-13.87-10.69zM139.08 126.135c-18.877 0-32.747-12.96-32.747-31.837 0-17.058 12.51-32.288 32.288-32.288 14.78 0 30.018 11.14 30.018 31.837 0 1.594 0 3.639-.45 5.917h-44.573c1.594 6.818 7.737 11.366 15.239 11.366 6.827 0 12.051-2.503 16.374-7.051l10.231 10.456c-6.593 7.502-16.14 11.6-26.38 11.6zm-.909-49.346c-7.052 0-12.961 4.098-14.329 10.69h28.199c-1.369-6.367-7.052-10.69-13.87-10.69zm789.095 49.338c-13.42 0-29.793-7.278-29.793-30.019V63.586h16.824v31.379c0 10.456 4.773 15.005 12.96 15.005 7.503 0 12.96-5.233 12.96-15.005V63.586h16.825v32.522c0 22.741-16.599 30.019-29.794 30.019m-144.858 0c8.412 0 15.238-3.864 18.877-9.322l1.819 7.728h14.78V63.595h-14.78l-1.819 7.962c-3.639-5.684-9.781-8.872-18.877-8.872-16.149 0-30.244 14.33-30.244 31.379s14.095 32.063 30.244 32.063zm3.413-48.212c8.871 0 15.689 6.818 15.689 16.149 0 9.33-6.818 15.914-15.689 15.914s-15.914-7.052-15.914-15.914c0-9.322 6.818-16.149 15.914-16.149zm-105.285 46.618v-17.058h-39.115V32h-17.967v92.541h57.082v-.008zm36.386 1.594c10.231 0 19.787-4.09 26.38-11.601l-10.232-10.456c-4.323 4.548-9.547 7.052-16.373 7.052-7.503 0-13.645-4.548-15.23-11.367h44.572c.451-2.27.451-4.322.451-5.908 0-20.696-15.239-31.837-30.019-31.837-19.787 0-32.288 15.238-32.288 32.288 0 18.877 13.87 31.837 32.748 31.837m-.91-49.346c6.818 0 12.501 4.323 13.87 10.69h-28.199c1.36-6.592 7.277-10.69 14.329-10.69zm279.711 49.346c10.236 0 19.786-4.089 26.376-11.6l-10.23-10.456c-4.32 4.548-9.54 7.051-16.371 7.051-7.502 0-13.645-4.548-15.239-11.366h44.57c.45-2.27.45-4.323.45-5.908 0-20.697-15.24-31.838-30.015-31.838-19.787 0-32.297 15.239-32.297 32.288 0 18.878 13.87 31.838 32.748 31.838m-.91-49.346c6.824 0 12.514 4.323 13.874 10.69h-28.203c1.36-6.592 7.277-10.69 14.32-10.69m-137.122 1.135c8.871 0 15.914 6.818 15.914 16.148s-7.052 15.915-15.914 15.915c-8.863 0-15.915-7.052-15.915-15.915 0-9.322 7.052-16.148 15.915-16.148zm15.005-6.593c-3.639-5.233-10.006-8.637-17.058-8.637-17.283 0-31.379 13.644-31.379 31.378s13.645 32.063 30.928 32.063c6.593 0 12.51-2.045 17.509-7.277v4.323c0 9.096-5.458 15.238-17.968 15.238-7.961 0-14.095-3.863-18.643-8.186l-9.322 12.96c7.277 7.052 16.374 11.366 29.109 11.366 9.321 0 17.058-3.179 22.741-7.502 7.502-5.909 10.69-13.87 10.69-25.245V63.595h-14.779l-1.82 7.728" fill="#fff"/><g clip-path="url(#bnclip0_904_43)"><path d="M576.414 91.59c-2.612-6.623-6.165-12.857-10.324-18.8.376-3.163 0-5.973-3.813-10.576-.835-2.006-1.593-3.73-2.244-5.398-.36-3.393.153-8.034.835-9.994-3.064-4.963-9.083-9.175-16.833-12.031 1.287-10.124 3.982-20.095 7.283-27.922-4.105 1.785-9.305 5.124-13.876 9.39-.429-5.875-1.004-11.695-1.433-15.983-.903.827-16.817 17.828-16.817 17.828L507.812 0l-7.26 20.18s-15.071-10.5-19.834-13.533c.429 6.058 1.187 11.732 1.685 15.914-2.811-1.693-10.806-5.001-15.569-5.223 4.342 6.08 10.782 16.097 13.049 25.356-13.149 7.987-23.311 17.23-34.882 37.93 1.6.108 4.87.315 7.788.62-5.613 7.222-13.8 25.326-12.69 39.563 2.03-.674 8.899-2.819 12.69-4.09-3.017 12.491-1.034 38 8.447 47.764 5.223-2.413 14.872-11.763 20.386-19.651.865 15.569-4.166 30.318-5.108 32.003 30.992 20.11 62.39-.13 62.39-.13s1.517 6.992 2.167 9.297c8.57-2.137 26.605-13.494 33.168-39.225 1.516 1.731 4.526 5.062 5.835 6.969 11.372-29.078 4.909-48.56-3.668-62.145l.008-.008z" fill="#fff"/><path d="M474.301 22.277c7.505 3.439 12.321 7.781 13.194 8.44-.398-1.945-1.876-11.265-2.726-17.07a6695.175 6695.175 0 0017.859 12.375c1.363-4.196 6.073-17.89 6.073-17.89s8.516 13.793 9.971 16.037c1.776-1.861 11.962-13.187 14.596-16.06.444 6.518 1.049 15.845 1.195 17.247.52-.697 4.418-6.157 10.951-11.196-2.834 5.575-4.182 13.279-4.787 19.467a74.81 74.81 0 00-20.202-2.765c-13.424 0-26.03 3.538-36.927 9.726-1.983-5.966-5.085-13.402-9.197-18.31zm102.756 117.621l-5.912-6.555c-1.693 17.705-10.354 32.731-26.275 43.207l-2.428-9.55c-13.516 9.772-36.713 16.098-56.631 4.84 2.466-12.628 4.663-25.409-.046-40.726-11.028 17.086-20.8 23.779-20.8 23.779-7.443-12.514-6.777-37.624-4.556-45.022l-12.406 3.844c0-8.431 6.08-26.344 14.872-36.391l-7.75-1.24a72.894 72.894 0 0122.737-27.01h.007c-2.887 4.563-2.925 15.813 5.537 20.094-3.599-6.303-4.028-14.083-.283-18.12 3.76-4.058 10.07-2.664 14.098.491-1.194-3.515-4.709-7.934-9.978-8.24 9.948-5.116 21.228-8.003 33.182-8.003 2.236 0 4.442.1 6.625.299 3.476 1.401 8.577 6.295 10.958 9.335 0 0 .169-3.592-1.83-7.926 12.942 3.14 19.107 8.409 21.695 10.959.529 5.582 2.206 8.944 4.419 14.26-4.189-4.703-14.726-12.27-19.75-14.084 0 0-.414 4.847-2.144 7.183-10.009-7.23-14.926-9.036-14.926-9.036-10.997 1.57-18.058 5.812-21.894 9.143l3.346 2.85c-6.624 2.036-10.928 7.734-10.928 7.734.046.1 5.92.934 5.92.934s-.598 6.9 8.041 11.227c7.39 3.699 18.035-.888 28.051 3.124-6.593-7.604-11.127-11.004-11.127-11.004s-2.619-.544-4.465-.536c-2.297.015-5.72.474-9.488-.996-1.792-.697-3.89-1.937-5.529-2.971 0 0 4.625-4.748 11.372-5.797 0 0 6.088 1.715 10.921 5.284 3.208-3.125 6.555-3.025 6.555-3.025s-3.316 3.101-2.313 6.854c4.825 4.304 10.055 10.453 10.055 10.453 5.33-2.925 16.909-2.252 19.291.505-3.017-3.905-7.359-7.168-10.721-9.963-.406-1.462-4.074-6.578-4.695-7.045 0 0 3.492 1.08 6.602 3.867.903-1.271 2.573-2.573 4.855-3.147 2.351 1.968 2.757 4.985 2.695 5.49-1.064 1.257-2.09 1.777-2.09 1.777l5.636 6.104.567-4.38c12.996 18.555 20.087 40.059 10.966 67.1l-.038.03zM552.543 99.9l-.015-9.596s-4.281-1.378-8.868-4.931c-9.19 1.393-20.332 10.637-20.332 10.637s3.768 7.137 7.872 14.833c7.237.996 17.89-8.125 21.328-10.95l.015.007zm9.251 17.407s-.735-3.967-3.882-7.681l-7.168.176s-9.68 8.317-15.577 8.508c0 0 3.255 6.05 4.886 9.205 3.255-.704 8.968-3.278 11.265-5.943 0 0 1.524 4.909 1.233 10.691 3.232-1.884 7.689-6.953 9.251-14.964l-.008.008zm2.949-31.544c-3.615 3.048-6.686 4.733-6.686 4.733l.031 9.641c2.596 2.887 5.146 5.277 7.061 9.634 3.622-6.517 2.933-16.12-.406-24.008z" fill="#37003C"/></g><defs><clipPath id="bnclip0_904_43"><path fill="#fff" transform="translate(440)" d="M0 0h146.185v186H0z"/></clipPath></defs></symbol><symbol viewBox="0 0 110.47 151.84" id="icn-red-card-angled" xmlns="http://www.w3.org/2000/svg"><path fill="#F90E00" d="M32.5 150.84a11 11 0 01-10.84-9.09L1.17 25.54a11 11 0 018.92-12.74l66-11.63a11 11 0 0112.74 8.92l20.49 116.21a11 11 0 01-8.92 12.74l-66 11.63a11 11 0 01-1.9.17z"/><path fill="#961008" d="M77.98 0v2a10 10 0 019.85 8.26l20.49 116.21a10 10 0 01-8.11 11.58l-66 11.63a10 10 0 01-11.58-8.11L2.16 25.37a10 10 0 018.11-11.58l66-11.63A10 10 0 0178 2.01v-2m0 0a12 12 0 00-2.08.18l-66 11.63a12 12 0 00-9.73 13.9l20.49 116.2a12 12 0 0013.9 9.73l66-11.63a12 12 0 009.73-13.9L89.8 9.92A12 12 0 0077.98 0z"/></symbol><symbol viewBox="0 0 24 21" id="icn-reset" xmlns="http://www.w3.org/2000/svg"><path d="M14.08.5C8.6.5 4.16 5.067 4.16 10.7c0 .621.059 1.226.162 1.817L.878 8.973 0 9.876l4.96 5.1.004-.004.436.45.435-.45.003.005 4.96-5.101-.877-.903-4.16 4.28A9.155 9.155 0 015.4 10.7c0-4.922 3.893-8.925 8.68-8.925 4.786 0 8.68 4.003 8.68 8.925 0 4.922-3.894 8.925-8.68 8.925V20.9c5.478 0 9.92-4.567 9.92-10.2C24 5.067 19.558.5 14.08.5"/></symbol><symbol viewBox="0 0 24 24" id="icn-search" xmlns="http://www.w3.org/2000/svg"><path d="M19.177 17.654c3.477-4.243 3.236-10.532-.723-14.49-4.218-4.219-11.078-4.219-15.29 0-4.219 4.218-4.219 11.07 0 15.288a10.776 10.776 0 007.645 3.16c2.433 0 4.865-.81 6.847-2.438l4.51 4.51c.21.208.488.316.76.316a1.078 1.078 0 00.76-1.837l-4.51-4.509zm-14.5-.722c-3.375-3.375-3.375-8.866 0-12.248a8.634 8.634 0 016.12-2.534c2.216 0 4.433.843 6.125 2.534 3.376 3.375 3.376 8.867 0 12.242l-.007.007c-3.363 3.375-8.861 3.375-12.237 0z"/></symbol><symbol viewBox="0 0 16 18" id="icn-share" xmlns="http://www.w3.org/2000/svg"><path d="M13.09 0c-1.6 0-2.908 1.278-2.908 2.842 0 .372.07.733.204 1.059l-5.53 2.997a2.934 2.934 0 00-1.947-.74C1.308 6.158 0 7.436 0 9c0 1.565 1.308 2.842 2.91 2.842.751 0 1.437-.28 1.954-.74l5.53 2.998a2.746 2.746 0 00-.212 1.058c0 1.564 1.308 2.842 2.909 2.842C14.692 18 16 16.722 16 15.158c0-1.565-1.308-2.842-2.91-2.842-.87 0-1.654.38-2.189.977L5.47 10.347a2.77 2.77 0 000-2.694L10.9 4.707a2.927 2.927 0 002.19.977C14.692 5.684 16 4.407 16 2.842 16 1.278 14.692 0 13.09 0z" fill-rule="evenodd"/></symbol><symbol viewBox="0 0 84.55 86.13" id="icn-share-facebook"><path d="M38.01 55.82a39.44 39.44 0 015.49.27l.68 30L83.39 45.2a4.33 4.33 0 00-.23-6.14L42.35 0l.54 28.22A50 50 0 00.01 78.88c.08 1.14.06 2.39.15 3.52a42 42 0 0137.85-26.58z"/></symbol><symbol fill="none" viewBox="0 0 12 8" id="icn-stadium" xmlns="http://www.w3.org/2000/svg"><path fill-rule="evenodd" clip-rule="evenodd" d="M11.988 4.69v.35L6.485 7.616v-.352l5.503-2.574zM5.457 6.694l.885.567v.345l-.885-.57v-.342zM0 4.662l3.793 2.476v.351L0 5.004v-.342zm5.05 2.025v.335l-1.048.467v-.335l1.048-.467zm6.938-2.845v.352L6.485 6.768v-.352l5.503-2.574zM5.457 5.85l.885.567v.345l-.885-.57V5.85zM0 3.773l3.793 2.475V6.6L0 4.114v-.34zm5.05 2.025v.335L4.002 6.6v-.336l1.048-.466zM5.667 0l.98.647L7.858.09l4.076 2.046-1.275.55L12 3.335l-5.526 2.53-1.22-.825-1.428.672L.022 3.215l1.45-.572-1.063-.636L5.667 0zm.872 1.257l-3.64 1.485 2.397 1.42 3.739-1.574-2.496-1.33zm5.46 1.283v.335l-.283.127-.353-.178.636-.284zM.41 2.33l.537.326-.364.153-.176-.098.003-.381z" fill="#37003C"/></symbol><symbol fill="none" viewBox="0 0 16 11" id="icn-stadium-b" xmlns="http://www.w3.org/2000/svg"><path clip-rule="evenodd" d="M15.985 6.419v.469L8.646 10.32v-.47l7.339-3.431zm-8.71 2.675l1.181.755v.46l-1.18-.759v-.456zM0 6.384l5.057 3.3v.468L0 6.838v-.455zm6.733 2.698v.447l-1.397.623v-.447l1.397-.623zm9.252-3.792v.469L8.646 9.19v-.469l7.339-3.431zm-8.71 2.676l1.181.756v.46l-1.18-.759v-.457zM0 5.198l5.057 3.3v.469L0 5.652v-.454zm6.733 2.699v.447l-1.397.623v-.448l1.397-.622zm.824-7.73l1.306.862 1.615-.74 5.434 2.727-1.7.734L16 4.613 8.633 7.987l-1.628-1.1-1.904.895L.029 4.453l1.933-.763-1.417-.847L7.557.167zm1.162 1.676l-4.854 1.98 3.197 1.892 4.985-2.098-3.328-1.774zm7.28 1.71v.448l-.378.169-.47-.238.848-.379zM.545 3.273l.717.435-.486.204-.234-.131.003-.508z"/></symbol><symbol viewBox="0 0 100 100" id="icn-subs-off" xmlns="http://www.w3.org/2000/svg"><path d="M71.586 63.777l23.41-23.418H95L71.586 16.945H59.879l23.414 23.414-23.418 23.418z"/><path d="M50.18 36.223h33.113V44.5H41.902l-.004.004z"/><path fill-opacity=".4" d="M28.414 36.223L5.004 59.641H5l23.414 23.414h11.707l-23.41-23.414 23.414-23.418z"/><path fill-opacity=".4" d="M49.82 63.777H16.707v-8.281l41.391.004.004-.004z"/></symbol><symbol viewBox="0 0 100 100" id="icn-subs-on" xmlns="http://www.w3.org/2000/svg"><path fill-opacity=".4" d="M71.586 63.777l23.41-23.418H95L71.586 16.945H59.879l23.414 23.414-23.418 23.418z"/><path fill-opacity=".4" d="M50.18 36.223h33.113V44.5H41.902l-.004.004z"/><path d="M28.414 36.223L5.004 59.641H5l23.414 23.414h11.707l-23.41-23.414 23.414-23.418z"/><path d="M49.82 63.777H16.707v-8.281l41.391.004.004-.004z"/></symbol><symbol viewBox="0 0 100 100" id="icn-subs-w" xmlns="http://www.w3.org/2000/svg"><path d="M71.586 63.777l23.41-23.418H95L71.586 16.945H59.879l23.414 23.414-23.418 23.418z"/><path d="M50.18 36.223h33.113V44.5H41.902l-.004.004zM28.414 36.223L5.004 59.641H5l23.414 23.414h11.707l-23.41-23.414 23.414-23.418z"/><path d="M49.82 63.777H16.707v-8.281l41.391.004.004-.004z"/></symbol><symbol viewBox="0 0 8 8" fill="none" id="icn-tick" xmlns="http://www.w3.org/2000/svg"><path fill-rule="evenodd" clip-rule="evenodd" d="M3.466 7.444a.659.659 0 01-.397-.133L.261 5.186a.654.654 0 01-.127-.919.66.66 0 01.921-.127l2.252 1.704L6.793.628a.66.66 0 011.195.234.657.657 0 01-.1.495L4.014 7.152a.658.658 0 01-.548.292z" fill="#37003C"/></symbol><symbol viewBox="0 0 48 48" id="icn-twitter" xmlns="http://www.w3.org/2000/svg"><path d="M48 8.735a19.235 19.235 0 01-5.655 1.59 10.076 10.076 0 004.33-5.585 19.395 19.395 0 01-6.257 2.447C38.627 5.225 36.066 4 33.231 4c-5.435 0-9.844 4.521-9.844 10.098 0 .791.085 1.56.254 2.3-8.185-.423-15.44-4.438-20.3-10.555a10.281 10.281 0 00-1.332 5.082c0 3.502 1.738 6.593 4.38 8.405a9.668 9.668 0 01-4.462-1.26v.124c0 4.894 3.395 8.977 7.903 9.901a9.39 9.39 0 01-2.595.356c-.634 0-1.254-.061-1.854-.18 1.254 4.01 4.888 6.932 9.199 7.01-3.37 2.71-7.618 4.325-12.23 4.325-.795 0-1.58-.047-2.35-.139C4.359 42.327 9.537 44 15.096 44c18.115 0 28.019-15.385 28.019-28.73 0-.439-.009-.878-.026-1.308A20.211 20.211 0 0048 8.735" fill-rule="evenodd"/></symbol><symbol viewBox="0 0 90 90" id="icn-whatsapp" xmlns="http://www.w3.org/2000/svg"><path d="M90 43.841c0 24.213-19.779 43.841-44.182 43.841a44.256 44.256 0 01-21.357-5.455L0 90l7.975-23.522a43.38 43.38 0 01-6.34-22.637C1.635 19.628 21.416 0 45.818 0 70.223 0 90 19.628 90 43.841zM45.818 6.982c-20.484 0-37.146 16.535-37.146 36.859 0 8.065 2.629 15.534 7.076 21.61L11.107 79.14l14.275-4.537A37.122 37.122 0 0045.819 80.7c20.481 0 37.146-16.533 37.146-36.857S66.301 6.982 45.818 6.982zm22.311 46.956c-.273-.447-.994-.717-2.076-1.254-1.084-.537-6.41-3.138-7.4-3.495-.993-.358-1.717-.538-2.438.537-.721 1.076-2.797 3.495-3.43 4.212-.632.719-1.263.809-2.347.271-1.082-.537-4.571-1.673-8.708-5.333-3.219-2.848-5.393-6.364-6.025-7.441-.631-1.075-.066-1.656.475-2.191.488-.482 1.084-1.255 1.625-1.882.543-.628.723-1.075 1.082-1.793.363-.717.182-1.344-.09-1.883-.27-.537-2.438-5.825-3.34-7.977-.902-2.15-1.803-1.792-2.436-1.792-.631 0-1.354-.09-2.076-.09s-1.896.269-2.889 1.344c-.992 1.076-3.789 3.676-3.789 8.963 0 5.288 3.879 10.397 4.422 11.113.541.716 7.49 11.92 18.5 16.223C58.2 65.771 58.2 64.336 60.186 64.156c1.984-.179 6.406-2.599 7.312-5.107.9-2.512.9-4.663.631-5.111z"/></symbol><symbol viewBox="0 0 16 16" id="icn-whistle-d" xmlns="http://www.w3.org/2000/svg"><path d="M7.442 2a.372.372 0 00-.372.372V3.86a.372.372 0 10.744 0V2.372A.372.372 0 007.442 2zM4.2 3.055a.372.372 0 01.524.046l.957 1.14a.372.372 0 11-.57.479l-.957-1.14a.372.372 0 01.046-.525zM9.807 3.101a.372.372 0 01.57.479l-.956 1.14a.372.372 0 01-.57-.479l.956-1.14zM0 7.953l7.07-.912v1.657h.744V6.945l3.72-.48-.006.017a4.093 4.093 0 11-3.702 4.393L0 9.07V7.953z"/></symbol><symbol viewBox="0 0 110.47 151.84" id="icn-yellow-card-angled" xmlns="http://www.w3.org/2000/svg"><path fill="#FEDD44" d="M32.5 150.84a11 11 0 01-10.84-9.09L1.17 25.54a11 11 0 018.92-12.74l66-11.63a11 11 0 0112.74 8.92l20.48 116.21a11 11 0 01-8.93 12.7l-66 11.63a11 11 0 01-1.88.21z"/><path fill="#ab952e" d="M78 0v2a10 10 0 019.85 8.26l20.49 116.21a10 10 0 01-8.11 11.58l-66 11.63a10 10 0 01-11.58-8.11L2.15 25.37a10 10 0 018.11-11.58l66-11.63A10 10 0 0178 2V0m0 0a12 12 0 00-2.1.18l-66 11.63A12 12 0 00.18 25.72l20.49 116.21a12 12 0 0013.9 9.73l66-11.63a12 12 0 009.73-13.9L89.8 9.92A12 12 0 0078 0z"/></symbol><symbol viewBox="0 0 138.47 161.84" id="icn-yellow-red-card-angled" xmlns="http://www.w3.org/2000/svg"><path fill="#F90E00" d="M32.5 150.84a11 11 0 01-10.84-9.09L1.17 25.54a11 11 0 018.92-12.74l66-11.63a11 11 0 0112.74 8.92l20.48 116.21a11 11 0 01-8.93 12.7l-66 11.63a11 11 0 01-1.88.21z"/><path fill="#961008" d="M78 0v2a10 10 0 019.85 8.26l20.49 116.21a10 10 0 01-8.11 11.58l-66 11.63a10 10 0 01-11.58-8.11L2.15 25.37a10 10 0 018.11-11.58l66-11.63A10 10 0 0178 2V0m0 0a12 12 0 00-2.1.18l-66 11.63A12 12 0 00.18 25.72l20.49 116.21a12 12 0 0013.9 9.73l66-11.63a12 12 0 009.73-13.9L89.8 9.92A12 12 0 0078 0z"/><path fill="#FEDD44" d="M60.5 160.84a11 11 0 01-10.84-9.09L29.17 35.54a11 11 0 018.92-12.74l66-11.63a11 11 0 0112.74 8.92l20.48 116.21a11 11 0 01-8.93 12.7l-66 11.63a11 11 0 01-1.88.21z"/><path fill="#ab952e" d="M106 10v2a10 10 0 019.85 8.26l20.49 116.21a10 10 0 01-8.11 11.58l-66 11.63a10 10 0 01-11.58-8.11l-20.5-116.2a10 10 0 018.11-11.58l66-11.63A10 10 0 01106 12v-2m0 0a12 12 0 00-2.08.18l-66 11.63a12 12 0 00-9.73 13.9l20.48 116.22a12 12 0 0013.9 9.73l66-11.63a12 12 0 009.73-13.9L117.8 19.92A12 12 0 00106 10z"/></symbol><symbol viewBox="0 0 20 15" id="icn-youtube" xmlns="http://www.w3.org/2000/svg"><path d="M7.856 10.108l-.001-5.433 5.35 2.726-5.35 2.707zm11.746-6.374s-.194-1.333-.787-1.92c-.753-.77-1.597-.774-1.984-.818C14.061.8 9.904.8 9.904.8h-.008S5.74.8 2.969.996c-.388.044-1.23.048-1.985.819C.391 2.4.198 3.734.198 3.734S0 5.299 0 6.864V8.33c0 1.565.198 3.13.198 3.13s.193 1.332.786 1.919c.754.77 1.743.746 2.184.826 1.584.15 6.732.195 6.732.195s4.16-.006 6.931-.202c.387-.045 1.23-.049 1.984-.82.593-.586.787-1.918.787-1.918s.198-1.565.198-3.13V6.863c0-1.564-.198-3.13-.198-3.13z" fill-rule="evenodd"/></symbol><symbol id="partners-hublot-official-timekeeper" viewBox="0 0 216 62" xml:space="preserve" xmlns="http://www.w3.org/2000/svg"><style>.cfst0{fill:#181716}</style><path class="cfst0" d="M3.6 55.6C3.6 52.5 6 50 9.3 50s5.7 2.5 5.7 5.5S12.6 61 9.3 61s-5.7-2.4-5.7-5.4zm8.9 0c0-1.9-1.3-3.4-3.2-3.4s-3.2 1.5-3.2 3.3c0 1.8 1.3 3.4 3.2 3.4 1.9 0 3.2-1.5 3.2-3.3zM18.6 50.2h8.2v2.1H21v2.3h5.1v2.1H21v4.1h-2.4V50.2zM30.2 50.2h8.2v2.1h-5.8v2.3h5.1v2.1h-5.1v4.1h-2.4V50.2zM41.9 50.2h2.4v10.7h-2.4V50.2zM48 55.6c0-3.1 2.3-5.6 5.6-5.6 2 0 3.2.7 4.2 1.7l-1.5 1.7c-.8-.7-1.7-1.2-2.7-1.2-1.8 0-3.1 1.5-3.1 3.3 0 1.8 1.3 3.4 3.1 3.4 1.2 0 2-.5 2.8-1.3l1.5 1.5c-1.1 1.2-2.3 1.9-4.4 1.9-3.2.1-5.5-2.3-5.5-5.4zM61.4 50.2h2.4v10.7h-2.4V50.2zM71.6 50.1h2.2l4.6 10.8h-2.5l-1-2.4h-4.5l-1 2.4H67l4.6-10.8zm2.5 6.3L72.6 53l-1.4 3.5h2.9zM81.5 50.2h2.4v8.6h5.3v2.1h-7.7V50.2zM101.1 52.4h-3.3v-2.2h8.9v2.2h-3.3v8.5H101v-8.5zM110.2 50.2h2.4v10.7h-2.4V50.2zM116.8 50.2h2.5l2.8 4.5 2.8-4.5h2.5v10.7h-2.3v-7l-3 4.6h-.1l-3-4.5v6.9h-2.3V50.2zM131.6 50.2h8.1v2.1H134v2.2h5v2.1h-5v2.2h5.8v2.1h-8.2V50.2zM143.3 50.2h2.4v4.7l4.3-4.7h2.8l-4.4 4.5 4.6 6.2h-2.8l-3.3-4.6-1.2 1.3v3.3h-2.4V50.2zM156 50.2h8.1v2.1h-5.7v2.2h5v2.1h-5v2.2h5.8v2.1H156V50.2zM167.8 50.2h8.1v2.1h-5.7v2.2h5v2.1h-5v2.2h5.8v2.1h-8.2V50.2zM179.6 50.2h4.4c2.6 0 4.1 1.5 4.1 3.7 0 2.5-1.9 3.8-4.3 3.8H182v3.2h-2.4V50.2zm4.2 5.4c1.2 0 1.9-.7 1.9-1.6 0-1.1-.7-1.6-1.9-1.6H182v3.3h1.8zM191.3 50.2h8.1v2.1h-5.7v2.2h5v2.1h-5v2.2h5.8v2.1h-8.2V50.2zM203.1 50.2h4.9c1.4 0 2.4.4 3.1 1.1.6.6.9 1.4.9 2.4 0 1.7-.9 2.8-2.3 3.3l2.6 3.8h-2.8l-2.3-3.4h-1.9v3.4h-2.4V50.2zm4.8 5.2c1.1 0 1.8-.6 1.8-1.5 0-1-.7-1.5-1.9-1.5h-2.3v3.1h2.4z"/><g><path class="cfst0" d="M27.5 1.8v12.4H10.7V1.8H4.2v33.3h6.5V21h16.8v14.1H34V1.8h-6.5zM67.6 1.8v17.4c0 5-.5 10.4-8.8 10.4s-8.9-5.2-8.9-10.4V1.8h-6.5v17.8c0 7.9 2.2 16.4 15.3 16.4C71.8 36 74 27.4 74 19.6V1.8h-6.4zM121.8 1.8v33.3h22.5v-6.7h-15.9V1.8h-6.6zM164.1.9c-10 0-17.8 7.7-17.8 17.5s7.8 17.5 17.8 17.5 17.8-7.7 17.8-17.5S174.1.9 164.1.9zm0 28.6c-6.3 0-11.3-4.9-11.3-11.1 0-6.2 5-11.1 11.3-11.1s11.3 4.9 11.3 11.1c0 6.2-5 11.1-11.3 11.1zM184.6 1.8v6.8H195v26.5h6.5V8.6h10.2V1.8h-27.1zM108.2 17.7c2-1.6 3.2-3.9 3.2-6.6 0-2.8-1.1-9.2-11.5-9.2H82.8v33.3H101c7.3 0 11.5-3.7 11.5-10.1 0-3.2-1.5-5.7-4.3-7.4zm-8.6-9.8c3.6 0 4.7 1.3 4.7 3.5s-1 3.8-4.6 3.8H89.3V7.9h10.3zm1 21.1H89.3v-8.4h11.3c3.4 0 4.8 1.3 4.8 4.3.1 2.3-.9 4.1-4.8 4.1z"/></g></symbol><symbol fill="none" viewBox="0 0 17 14" id="twitter" xmlns="http://www.w3.org/2000/svg"><path d="M15.194 3.642c.01.14.01.28.01.421 0 4.306-3.277 9.27-9.27 9.27v-.002a9.224 9.224 0 01-4.995-1.46 6.543 6.543 0 004.822-1.35 3.262 3.262 0 01-3.043-2.263c.488.094.991.074 1.47-.057a3.258 3.258 0 01-2.613-3.193v-.041c.453.252.96.392 1.479.407a3.262 3.262 0 01-1.009-4.35A9.247 9.247 0 008.76 4.428a3.26 3.26 0 015.552-2.972 6.538 6.538 0 002.07-.79 3.27 3.27 0 01-1.433 1.801 6.48 6.48 0 001.871-.513 6.62 6.62 0 01-1.626 1.688z" fill="#fff"/></symbol></svg>